<svg xmlns="http://www.w3.org/2000/svg" width="150" height="50" viewBox="0 0 1052.28 262.498">
  <defs>
    <style>
      .cls-1 {
        fill: #0081ff;
        fill-rule: evenodd;
      }
    </style>
  </defs>
  <path id="match" class="cls-1" d="M827.641,1035.79q-0.357-19.56-.354-43.632,0-12.566.177-25.754t0.177-33.542q0-24.6-14.32-39.737t-39.779-15.134q-15.557,0-35.093,6.9a188.96,188.96,0,0,0-35.268,16.461h-0.354a44.922,44.922,0,0,0-17.7-16.9Q673.45,877.993,657,877.991q-15.4,0-34.242,7.789t-29.286,14.514l-0.353-.177,0.176-17.524H540.013q0.353,29.916.442,53.986t0.089,39.3q0,37.524-.266,58.146t-0.265,29.29h54.34q0-6.72-.354-30.62t-0.354-42.833q0-11.326.177-31.418T594,936.579a177.265,177.265,0,0,1,21.179-10.62q10.239-4.248,18.358-4.248,8.472,0,12.62,2.389a18.159,18.159,0,0,1,6.8,7.169,27.6,27.6,0,0,1,3.089,9.824,109.2,109.2,0,0,1,.971,11.593q0.174,8.322.266,24.515t0.088,24.869q0,23.895-.265,40.27t-0.266,20.97h54.34q0-6.015-.354-25.31t-0.354-42.3q0-10.794.177-24.6t0.177-27.435v-8.85A118.6,118.6,0,0,1,732,925.074a57.611,57.611,0,0,1,18-3.363q12.18,0,17.827,6.815t6,23.806q0.174,8.853.265,25.135t0.089,24.253q0,20.355-.178,37.08t-0.353,24.51H828Q828,1055.345,827.641,1035.79ZM1026.76,928.481a63.035,63.035,0,0,0-18.31-26.262q-13.64-11.849-33.547-16.976t-49.826-5.128q-14.163,0-21.948.266t-11.328.442L887.022,920.3q8.848-.353,16.461-0.708t18.408-.354a185.206,185.206,0,0,1,20.444.973A80.012,80.012,0,0,1,958,923.481q10.794,3.365,15.31,9.47t5.045,15.664q-16.64,1.24-37.171,4.248t-34.515,8.319q-20.887,7.791-30.71,19.825t-9.823,29.023a42.373,42.373,0,0,0,9.2,27.17q9.2,11.6,25.488,18.68,12.744,5.49,31.772,7.96a265.944,265.944,0,0,0,33.9,2.48q22.655,0,42.834-1.31t23.01-1.7q0-3.7.09-27.23t0.09-66.841Q1032.52,943.953,1026.76,928.481ZM981.1,1022.96q-0.091,8.49-.088,10.79-3.364,0-6.372.09t-5.31.09a119.062,119.062,0,0,1-16.462-1.06,69.961,69.961,0,0,1-13.629-3.19,34.127,34.127,0,0,1-13.54-9.02q-5.223-5.85-5.222-15.76a20.349,20.349,0,0,1,5.93-14.866,38.115,38.115,0,0,1,13.009-8.85,91.317,91.317,0,0,1,23.365-6.284q13.1-1.859,18.231-2.036,0.174,8.322.177,15.842v13.184Q981.187,1014.46,981.1,1022.96Zm221.962,2.83h-6.55q-29.04,0-39.83-9.47t-10.8-28.764q0-9.2-.08-17.612c-0.07-5.6-.09-10.355-0.09-14.249q0-7.434.17-19.027t0.18-15.488h60.71V882.593h-60.71V835.334h-52.21v47.259h-30.8V921.18h29.38q0,22.833-.18,40.445t-0.17,38.321q0,32.391,21.85,48.764,21.87,16.38,64.88,16.37,9.375,0,15.22-.17t8.32-.36l5.13-38.76h-4.42Zm171.06-3.72h-5.84a205.561,205.561,0,0,1-25.57-1.86,106.229,106.229,0,0,1-25.4-6.1q-14.88-5.67-23.81-15.934t-8.94-25.665a37.132,37.132,0,0,1,9.29-24.6q9.3-10.973,25.05-16.284a129.545,129.545,0,0,1,24.96-5.664,208.071,208.071,0,0,1,25.84-1.593h6.73l-4.78-43.011h-7.97q-29.565,0-53.98,6.018-24.435,6.018-42.49,17.877a88.88,88.88,0,0,0-28.23,28.409q-10.53,17.084-10.53,39.028a77.468,77.468,0,0,0,11.06,40.8q11.07,18.315,31.07,30a144.537,144.537,0,0,0,40.09,15.93q22.56,5.49,53.01,5.49h9.91l5.31-42.84h-4.78Zm217.71,9.74q-0.255-21.78-.26-38.236,0-9.733.26-23.984t0.27-35.666q0-25.662-14.43-40.8t-38.85-15.134q-13.98,0-32.74,6.107a205.223,205.223,0,0,0-35.23,15.134l-0.35-.177,0.71-95.227h-54.34q0.165,36.818.35,68.234t0.18,55.49q0,46.023-.27,84.518t-0.26,51.24h54.34l-0.53-126.377a149.094,149.094,0,0,1,23.09-10.885q11.775-4.336,20.27-4.337,12.915,0,18.32,6.992t5.75,23.983q0,8.322.18,19.825t0.18,20.355q0,9.558-.27,36.374t-0.26,34.07h54.34Q1592.1,1053.575,1591.83,1031.81Z" transform="translate(-540 -803.812)"/>
</svg>
